# xmcd
# 
# Track frame offsets:
#   150
#   10753
#   22981
#   35597
#   45154
#   59365
#   81442
#   104361
#   117039
#   131141
#   146914
#   165768
#   177313
#   194129
#   207505
# 
# Disc length: 2906 seconds
# 
# Revision: 0
# Processed by: cddbd v1.5.2PL0 Copyright (c) Steve Scherf et al.
# Submitted via: VOLTOCDX V1.0.24 
# 
DISCID=ce0b580f
DTITLE=Various Artist - DDB-01-CB
DYEAR=2008
DGENRE=Karaoke
TTITLE0=Bill Haley and the Comets - Rock Around the Clock - Various Artists
TTITLE1=Brenda Lee - I'm Sorry - Various Artists
TTITLE2=Buck Owens - Act Naturally - Various Artists
TTITLE3=Elvis Presley - All Shook Up - Various Artists
TTITLE4=Pat Benatar - Hit Me With Your Best Shot - Various Artists
TTITLE5=Eric Clapton - I Shot the Sheriff - Various Artists
TTITLE6=Kool and the Gang - Celebration - Various Artists
TTITLE7=Tammy Wynette - Stand By Your Man - Various Artists
TTITLE8=Hank Williams - Hey Good Lookin' - Various Artists
TTITLE9=Bobby Darin - Mack the Knife - Various Artists
TTITLE10=Shania Twain - Any Man of Mine - Various Artists
TTITLE11=Creedence Clearwater Revival - Bad Moon Rising - Various Artists
TTITLE12=Britney Spears - Baby, One More Time - Various Artists
TTITLE13=Southern Gospel - Amazing Grace - Various Artists
TTITLE14=Bobby Helms - Jingle Bell Rock - Various Artists
EXTD=
EXTT0=
EXTT1=
EXTT2=
EXTT3=
EXTT4=
EXTT5=
EXTT6=
EXTT7=
EXTT8=
EXTT9=
EXTT10=
EXTT11=
EXTT12=
EXTT13=
EXTT14=
PLAYORDER=
